Coordinates
version=1
nRows=35
nColumns=38
inDegrees=no

Units are S.I. units (second, meters, Newtons, ...)
If the header above contains a line with 'inDegrees', this indicates whether rotational values are in degrees (yes) or radians (no).

endheader
time	pelvis_tilt	pelvis_list	pelvis_rotation	pelvis_tx	pelvis_ty	pelvis_tz	hip_flexion_r	hip_adduction_r	hip_rotation_r	knee_angle_r	ankle_angle_r	subtalar_angle_r	mtp_angle_r	hip_flexion_l	hip_adduction_l	hip_rotation_l	knee_angle_l	ankle_angle_l	subtalar_angle_l	mtp_angle_l	lumbar_extension	lumbar_bending	lumbar_rotation	arm_flex_r	arm_add_r	arm_rot_r	elbow_flex_r	pro_sup_r	wrist_flex_r	wrist_dev_r	arm_flex_l	arm_add_l	arm_rot_l	elbow_flex_l	pro_sup_l	wrist_flex_l	wrist_dev_l
25	2.91469	1.48701	-1.35105	0.664863	0.228611	0.941657	-0.0638962	-0.0566786	-0.348601	0	-0.158923	0	0	-0.00945202	-0.0950299	-0.331245	0.0541712	-0.154732	0	0	-0.470665	-0.0244952	0.0570402	0.442016	-0.49164	0.205432	1.03986	0.659867	0	0	0.402117	-0.2905	0.0349429	1.27129	0.897343	0	0
25.01	2.90064	1.49228	-1.3388	0.664813	0.228558	0.9414	-0.0591881	-0.0552385	-0.341668	0	-0.167619	0	0	-0.0223436	-0.0850602	-0.318378	0.0188603	-0.17101	0	0	-0.457391	-0.0245216	0.0581799	0.436295	-0.490951	0.205392	1.03922	0.656502	0	0	0.396412	-0.290228	0.0343554	1.27079	0.896586	0	0
25.02	2.89559	1.49426	-1.33373	0.664825	0.228501	0.941297	-0.0615435	-0.0551064	-0.33981	0	-0.172798	0	0	-0.0324654	-0.0814513	-0.311465	0	-0.182864	0	0	-0.44797	-0.0244533	0.0584286	0.430733	-0.49001	0.20411	1.0386	0.653602	0	0	0.391467	-0.289984	0.0339787	1.2701	0.896269	0	0
25.03	2.89998	1.49297	-1.33765	0.664921	0.227964	0.941297	-0.0676707	-0.0545544	-0.338047	0	-0.176202	0	0	-0.0380144	-0.0812243	-0.310746	0	-0.187584	0	0	-0.442544	-0.0245941	0.0584824	0.425659	-0.488713	0.203244	1.0388	0.65161	0	0	0.387394	-0.289826	0.0334453	1.26927	0.896059	0	0
25.04	2.89383	1.49495	-1.33443	0.665232	0.225526	0.94089	-0.0647161	-0.0540325	-0.340418	0	-0.17256	0	0	-0.0367283	-0.0808064	-0.310862	0	-0.187371	0	0	-0.44102	-0.0253555	0.0609396	0.433562	-0.490702	0.205766	1.04069	0.653534	0	0	0.392599	-0.288055	0.0277026	1.26669	0.968334	0	0
25.05	2.89971	1.49213	-1.34034	0.665395	0.224566	0.94063	-0.0712127	-0.0530658	-0.340578	0	-0.171086	0	0	-0.0429563	-0.0807965	-0.312298	0	-0.186582	0	0	-0.438996	-0.0252912	0.0608318	0.43414	-0.489679	0.207075	1.03859	0.657172	0	0	0.391719	-0.286846	0.0232187	1.2645	1.00496	0	0
25.06	2.90024	1.49346	-1.34328	0.66567	0.222503	0.939837	-0.0693664	-0.0525191	-0.345687	0	-0.162549	0	0	-0.0425857	-0.0802297	-0.315821	0	-0.180333	0	0	-0.436667	-0.0256438	0.06286	0.442567	-0.49136	0.209586	1.03864	0.661654	0	0	0.398672	-0.298039	-0.00156467	1.27303	1.05725	0	0
25.07	2.9167	1.48705	-1.35982	0.665872	0.221896	0.939503	-0.0786368	-0.0514639	-0.34699	0	-0.158138	0	0	-0.0522438	-0.0803888	-0.317813	0	-0.175337	0	0	-0.438499	-0.0265936	0.0628936	0.445464	-0.490864	0.214316	1.03532	0.653541	0	0	0.399749	-0.290422	0.0310974	1.26643	0.94994	0	0
25.08	2.93224	1.48012	-1.37555	0.666044	0.221314	0.939202	-0.0879806	-0.0507685	-0.347294	0	-0.154264	0	0	-0.0625681	-0.0804861	-0.318888	0	-0.170097	0	0	-0.440354	-0.0256845	0.0632253	0.447822	-0.490353	0.21645	1.03302	0.658166	0	0	0.400567	-0.298954	0.00526493	1.27251	1.02698	0	0
25.09	2.94973	1.47005	-1.39199	0.666158	0.220813	0.939135	-0.0995861	-0.0501475	-0.347223	0	-0.151661	0	0	-0.0750832	-0.0809092	-0.318589	0	-0.165585	0	0	-0.446103	-0.025916	0.0624299	0.451184	-0.489305	0.21848	1.02826	0.661845	0	0	0.40212	-0.288877	0.0268972	1.26136	0.990733	0	0
25.1	2.9657	1.45894	-1.40655	0.66604	0.220504	0.939334	-0.111502	-0.04987	-0.346588	0	-0.150399	0	0	-0.087958	-0.0814372	-0.317184	0	-0.163282	0	0	-0.453027	-0.025076	0.0615166	0.453966	-0.488297	0.218392	1.02406	0.665136	0	0	0.402922	-0.288508	0.0276106	1.26049	0.967311	0	0
25.11	2.97936	1.44779	-1.41855	0.665788	0.220388	0.939746	-0.122816	-0.0499986	-0.34547	0	-0.150106	0	0	-0.0998557	-0.0817853	-0.31577	0	-0.162622	0	0	-0.460391	-0.0240857	0.0596407	0.456651	-0.486858	0.219676	1.01969	0.670382	0	0	0.402111	-0.287068	0.0247834	1.2603	0.952681	0	0
25.12	2.98966	1.43795	-1.42706	0.665434	0.22061	0.940316	-0.132531	-0.0502609	-0.344292	0	-0.150413	0	0	-0.109704	-0.0820386	-0.314339	0	-0.163004	0	0	-0.466621	-0.0230445	0.0571794	0.458342	-0.48473	0.220783	1.0157	0.675022	0	0	0.399894	-0.285172	0.0203996	1.2601	0.944249	0	0
25.13	2.99777	1.4308	-1.43343	0.665173	0.221046	0.940942	-0.139537	-0.0507905	-0.343054	0	-0.150845	0	0	-0.116501	-0.0820145	-0.312452	0	-0.164202	0	0	-0.47015	-0.0223065	0.0544978	0.458727	-0.481621	0.220481	1.01134	0.679533	0	0	0.396628	-0.283202	0.0153147	1.25959	0.9403	0	0
25.14	3.00389	1.42669	-1.4381	0.665001	0.221707	0.94152	-0.143552	-0.0514568	-0.341817	0	-0.151122	0	0	-0.12019	-0.0817742	-0.310405	0	-0.165548	0	0	-0.470309	-0.021932	0.0522378	0.457591	-0.478148	0.219353	1.00673	0.685011	0	0	0.392935	-0.281221	0.010546	1.25793	0.939234	0	0
25.15	3.00692	1.42529	-1.44001	0.664902	0.222545	0.941975	-0.144813	-0.0519607	-0.340783	0	-0.151514	0	0	-0.121268	-0.0816809	-0.308576	0	-0.166117	0	0	-0.467223	-0.0216862	0.0507736	0.455055	-0.475003	0.218256	1.0022	0.69104	0	0	0.389311	-0.279345	0.00697514	1.25468	0.940379	0	0
25.16	3.00407	1.42724	-1.43639	0.664901	0.22335	0.942269	-0.142606	-0.0520034	-0.340255	0	-0.152335	0	0	-0.119201	-0.0820001	-0.306971	0	-0.166756	0	0	-0.460022	-0.0201211	0.0495047	0.451878	-0.471428	0.216008	0.99726	0.709925	0	0	0.386025	-0.282688	-0.0474631	1.24941	1.17234	0	0
25.17	3.00237	1.42913	-1.43406	0.665018	0.224088	0.942531	-0.140298	-0.0518751	-0.340347	0	-0.153162	0	0	-0.117026	-0.0821574	-0.30641	0	-0.167923	0	0	-0.453058	-0.0202133	0.0495421	0.447267	-0.469132	0.214745	0.993793	0.711289	0	0	0.381685	-0.284149	-0.0311809	1.25166	1.08055	0	0
25.18	3.00214	1.43107	-1.4334	0.665204	0.224762	0.942737	-0.137813	-0.0517475	-0.341019	0	-0.153969	0	0	-0.114558	-0.082061	-0.306999	0	-0.16855	0	0	-0.446797	-0.0213226	0.0489565	0.443719	-0.466856	0.216474	0.990131	0.712138	0	0	0.378067	-0.276158	-0.0021955	1.24043	0.99558	0	0
25.19	3.00062	1.43356	-1.43199	0.66536	0.225199	0.942883	-0.134898	-0.0515714	-0.341608	0	-0.154789	0	0	-0.111622	-0.0818966	-0.308241	0	-0.169055	0	0	-0.440314	-0.0213701	0.0485327	0.440289	-0.46524	0.218241	0.988752	0.710656	0	0	0.374322	-0.277305	-0.00404435	1.2373	1.02141	0	0
25.2	3.00227	1.43177	-1.43318	0.665498	0.22684	0.943338	-0.139733	-0.0509979	-0.33949	0	-0.15948	0	0	-0.115792	-0.0821145	-0.306462	0	-0.173583	0	0	-0.434438	-0.0203516	0.0480478	0.429656	-0.46214	0.216779	0.98753	0.713234	0	0	0.3645	-0.288697	-0.0345135	1.24221	1.10653	0	0
25.21	3.00143	1.43153	-1.43237	0.665699	0.22692	0.943418	-0.140194	-0.0503393	-0.341127	0	-0.159685	0	0	-0.11578	-0.0821843	-0.306894	0	-0.173843	0	0	-0.431693	-0.0207977	0.0474865	0.426641	-0.461759	0.219577	0.988875	0.701847	0	0	0.361948	-0.285738	0.00614716	1.2383	0.969668	0	0
25.22	3.00031	1.43205	-1.432	0.665756	0.227221	0.943414	-0.139878	-0.0497176	-0.341996	0	-0.160063	0	0	-0.115198	-0.0822501	-0.307201	0	-0.17404	0	0	-0.428265	-0.0198634	0.0482803	0.422331	-0.460915	0.216849	0.990722	0.711997	0	0	0.360711	-0.296798	-0.0323973	1.23967	1.13673	0	0
25.23	2.99804	1.43349	-1.43175	0.66592	0.226155	0.943093	-0.135786	-0.0493868	-0.345612	0	-0.155403	0	0	-0.11156	-0.082074	-0.309851	0	-0.169849	0	0	-0.42836	-0.0210005	0.0500655	0.42557	-0.46378	0.220639	0.995968	0.688906	0	0	0.364185	-0.298233	0.0238819	1.24782	0.908104	0	0
25.24	2.99795	1.4315	-1.43353	0.666106	0.226352	0.943114	-0.138626	-0.0490721	-0.344556	0	-0.154716	0	0	-0.114498	-0.0821424	-0.310757	0	-0.168982	0	0	-0.427722	-0.0211128	0.0516422	0.422473	-0.462801	0.217294	0.996537	0.700993	0	0	0.362137	-0.299068	0.0184086	1.24513	1.01359	0	0
25.25	2.99918	1.42826	-1.43699	0.666354	0.226506	0.943173	-0.142881	-0.048842	-0.342774	0	-0.153858	0	0	-0.119093	-0.0822518	-0.311773	0	-0.167678	0	0	-0.428564	-0.0213754	0.0537663	0.419482	-0.463187	0.217951	0.999367	0.694618	0	0	0.360255	-0.304273	0.0270594	1.24908	0.978428	0	0
25.26	2.99952	1.42517	-1.43984	0.666629	0.226583	0.943186	-0.146878	-0.0487187	-0.339998	0	-0.152896	0	0	-0.123696	-0.082512	-0.312623	0	-0.166406	0	0	-0.429246	-0.021576	0.0561291	0.416551	-0.463498	0.219321	1.002	0.690378	0	0	0.358221	-0.308193	0.0327789	1.25282	0.953494	0	0
25.27	2.99962	1.42222	-1.44234	0.666904	0.226654	0.94316	-0.150577	-0.0486826	-0.337001	0	-0.151778	0	0	-0.12811	-0.0828336	-0.31349	0	-0.165232	0	0	-0.42994	-0.021641	0.0585777	0.413926	-0.463545	0.219337	1.00384	0.686254	0	0	0.356421	-0.310807	0.0362076	1.25587	0.935049	0	0
25.28	3.00063	1.41948	-1.4457	0.667174	0.226591	0.943124	-0.153887	-0.0489239	-0.333913	0	-0.150599	0	0	-0.132189	-0.0829832	-0.314754	0	-0.163993	0	0	-0.430582	-0.021859	0.0610024	0.411628	-0.463157	0.218102	1.00489	0.681825	0	0	0.354733	-0.312309	0.0377018	1.25787	0.922008	0	0
25.29	3.00002	1.41683	-1.44724	0.667421	0.226538	0.943122	-0.156822	-0.048909	-0.331011	0	-0.149757	0	0	-0.13598	-0.0834386	-0.316126	0	-0.162883	0	0	-0.431199	-0.0218148	0.0632103	0.409638	-0.462544	0.217873	1.00539	0.679922	0	0	0.353005	-0.313033	0.0374597	1.25867	0.91561	0	0
25.3	2.99821	1.41457	-1.44729	0.667669	0.226382	0.943148	-0.159097	-0.0486059	-0.328716	0	-0.149372	0	0	-0.139175	-0.0841311	-0.317184	0	-0.162363	0	0	-0.431542	-0.0216322	0.0650578	0.408488	-0.461523	0.217924	1.00439	0.679152	0	0	0.351534	-0.312884	0.0360725	1.25901	0.913503	0	0
25.31	2.99581	1.41253	-1.44634	0.667851	0.226209	0.943201	-0.160955	-0.0481325	-0.327122	0	-0.149265	0	0	-0.141828	-0.0848384	-0.318214	0	-0.162188	0	0	-0.431919	-0.0211711	0.0664339	0.408406	-0.460114	0.217559	1.00157	0.678628	0	0	0.350355	-0.311761	0.0335176	1.25877	0.913618	0	0
25.32	2.99339	1.41065	-1.44495	0.667927	0.226071	0.9433	-0.162504	-0.0476029	-0.326162	0	-0.149414	0	0	-0.144003	-0.0854577	-0.319326	0	-0.162153	0	0	-0.432552	-0.0204747	0.0672501	0.408867	-0.458496	0.216873	0.998231	0.678282	0	0	0.349378	-0.30996	0.0299906	1.25822	0.915142	0	0
25.33	2.99203	1.40932	-1.44422	0.667991	0.225914	0.943383	-0.163379	-0.0472717	-0.325788	0	-0.149708	0	0	-0.145393	-0.0858171	-0.319835	0	-0.162194	0	0	-0.433058	-0.0198726	0.0676326	0.409118	-0.457139	0.217276	0.995622	0.68065	0	0	0.348701	-0.308016	0.0263841	1.25743	0.917502	0	0
25.34	2.99252	1.40826	-1.44516	0.668058	0.225758	0.943469	-0.163936	-0.0471845	-0.325775	0	-0.149909	0	0	-0.146408	-0.0858415	-0.320176	0	-0.162411	0	0	-0.433779	-0.019625	0.0677993	0.409354	-0.455851	0.217363	0.993377	0.684273	0	0	0.348372	-0.306256	0.0231447	1.25653	0.920082	0	0
